<?xml version="1.0" encoding="UTF-8"?><svg id="Layer_1" xmlns="http://www.w3.org/2000/svg" viewBox="0 0 400 67.44"><defs><style>.cls-1{fill:#ea580c;}.cls-2{fill:#374151;}</style></defs><path class="cls-1" d="m5.65.08c2.33,0,2.41.08,2.41,2.16v.42l-.58,43.49v.25c0,1.75,0,1.99,1.83,2.08l18.79.5c1.5.17,1.83,0,1.83,1.42v.33l-.08,3.74c-.08,2.33-.33,2.08-2.58,2.16l-23.87.17c-.66,0-1.16.08-1.58.08-1.41,0-1.74-.33-1.74-2.66L0,2.75v-1.08C0,.33.17.08,2.16.08h3.49Zm24.78,2.08l5.32-.17c.91,0,.91.17.91,1l-.5,21.45c-.25,10.89-2.33,21.46-12.97,21.46-9.73,0-10.15-13.14-10.56-22.95,0-1.33-.08-4.49-.08-6.65,0-6.98.25-9.48.91-14.63.17-1,.17-1.16,1.33-1.16,1.5-.17,3.08-.17,4.57-.17.5,0,.58,0,.58.34v.83c-.42,5.49-.42,5.32-.42,12.97v4.99c0,5.82.08,11.31.75,15.46q.17.83,1.08.83h5.07c1,0,1.08-.17,1.42-.83.66-1.16.75-2.5.75-3.82v-1.33l.91-26.61q0-1,.91-1Z"/><path class="cls-1" d="m44.84,57.96h-3.24c-.42,0-.42-.17-.42-1.08l-.58-49.72V2.58c0-1,.08-1,.92-1.08l5.9-.66c.25,0,.41-.08.58-.08.33,0,.41.17.58.75l5.49,20.29c.17.67.33.92.5.92.25,0,.42-.58.83-1.25,3.41-5.4,8.23-16.96,9.73-20.62.25-.67.42-.75,1.08-.75h6.24c.83,0,.91.08.91.66v.5l-.42,54.63c0,1.33-.17,1.25-1.41,1.33l-5.65.42c-.25,0-.42.08-.58.08-.5,0-.58-.17-.58-.67v-.42l1.25-40.83c-2.91,6.4-7.4,12.89-10.31,18.71-.41.75-.58,1.08-.83,1.08s-.5-.33-.75-.83l-7.65-16.55.5,38.5v.25c0,.92-.58,1-1.16,1h-.91Z"/><path class="cls-1" d="m83.94,1.42c1.25,0,1.25.33,1.25,2.16v22.12c0,5.74-.25,11.64-.33,17.46v.5c0,.83-.08,1-.66,1h-.67l-4.82-.66c-1.08-.17-1.25-.34-1.25-1v-.83l.42-39.08v-.33c0-1,.08-1.16,1.33-1.16l3.83-.17h.91Zm5.82,44.4v-8.31c0-11.14.25-20.7.25-32.84V1.75c0-.75.08-.83,1.08-.83l4.57.75c1.58,0,1.58.25,1.91,1.42,3.66,12.22,6.82,23.03,10.81,35.01.17.58.5.83.75.83.34,0,.5-.33.5-1.16,0-3.24-.08-6.48-.08-9.73,0-5.9.08-11.89.08-17.88,0-3.41-.17-4.49-.17-7.82,0-.5.17-.67,1-.67h6.07c1,0,1.08,0,1.08.67,0,4.32-.17,6.98-.17,12.22,0,13.3.66,27.36.66,40.41,0,1-.17,1-1.58,1-2.49,0-4.49-.08-7.15-.08-1.66,0-1.5-.42-1.83-1.66-2.08-7.4-3.91-15.38-6.41-22.62-1.16-3.33-1.74-6.82-3.07-10.15-.25-.58-.42-.91-.5-.91-.17,0-.17,4.99-.17,9.4v6.15c0,6.07.08,14.3.08,20.04,0,1.33-.08,2.58-.25,3.74-.67,4.32-4.16,7.57-9.4,7.57-9.73,0-10.31-5.16-10.31-10.39v-2.5c0-1.66.08-2.24.08-3.91v-.08c.08-1.91.08-1.99,1.83-2.16l3.66-.08c.5-.08.83-.08,1.16-.08.91,0,1,.34,1,1.91v8.73c0,2.58.33,3.49,1.75,3.49,2.16,0,2.91-2.41,2.91-7.57v-.67l-.17-8.31Z"/><path class="cls-1" d="m139.6,55.3l-.5-5.49-.75-5.9c-.08-.5-.08-.58-.42-.58-.17,0-.33.08-.58.08-1.83.17-3.74.33-5.49.5-.91.08-1,.08-1.08.83l-2.16,12.8c-.08.75-.17.83-1,.83-2.16.08-4.32.25-6.49.25-.42,0-.58-.08-.58-.42,0-.17,0-.33.08-.58.91-4.74,1.75-9.81,2.5-14.63.83-4.16,1.5-8.4,2.24-12.56s2.41-12.72,3.16-16.46c.34-1.58.17-1.67,1.5-1.67h9.4c1.16,0,1.25.08,1.41,1.25l5.66,41.91v.42c0,.25-.17.25-.75.25h-5.07c-1.08,0-1-.08-1.08-.83Zm17.71-1.25v.5c0,1.16,0,1.25-1.33,1.33h-1.66c-1.5,0-2.33-.08-3.66-.25-1.16-.17-1.33-.25-1.33-1.66v-6.32c0-8.56.17-18.04.17-27.52v-10.31c0-1.16-.08-1.83-1.16-1.83l-17.79-.08c-1.83,0-1.91-.17-1.91-1.75v-.42c0-1.91-.08-2-.08-3.99,0-1.75.42-1.75,1.75-1.75h41.99c.58,0,.75.08.75.58v.33l-.08,4.82c0,1-.17,1.08-1,1.08h-2.16l-11.14.25c-1,.08-1.5.08-1.5,1.33,0,15.22.17,30.35.17,45.65Zm-22.95-35.09h-.58c-.5,0-.34.5-.42.92l-2.5,16.38v.34c0,.25.17.25.83.25h3.82c.67,0,.83,0,.83-.25,0-.17-.08-.25-.08-.42l-.75-16.47c-.08-.5-.17-.83-.58-.83l-.58.08Zm47.56-7.48c1.16,0,1.5,0,1.5.66,0,.17-.08.42-.08.75l-.42,5.16c-.17,1.58-.08,1.58-1.83,1.58h-9.07c-1.08,0-1.25.25-1.25.91v.91l-.08,4.74v.67c0,.75.08.83,1.33.83h8.48c1,0,1.16.08,1.16,1.5v3.99c0,2.08,0,2.16-2,2.24-1.16.08-2.24.08-3.57.08h-5.65c-1.16,0-1.33.08-1.33,1.67l-.08,6.65v.75c0,1.41.33,1.33,2.08,1.41l11.56.67c1.58.08,1.67.08,1.67,1.83v5.65c0,1.75,0,1.83-1.75,1.83h-17.46c-1.66,0-1.42-.17-1.5-1.75l-.58-16.47-.34-12.47-.08-12.39c0-1.5.17-1.66,1-1.66h1.16l17.13.25Z"/><path class="cls-2" d="m230.28,43.18h-3.57l-6.98-28.69h3.74l5.2,22.53,6.32-22.53h3.53l6.45,22.66,5.2-22.66h3.74l-6.98,28.69h-3.62l-6.53-22.29-6.49,22.29Z"/><path class="cls-2" d="m275.17,14.49v3.24h-13.72v8.98h12.47v3.24h-12.47v9.98h13.72v3.24h-17.3V14.49h17.3Z"/><path class="cls-2" d="m289.15,14.49c6.7,0,9.9,2.54,9.9,7.32,0,3-1.95,5.74-4.74,6.41,3.62.66,5.65,3.08,5.65,6.73,0,4.16-2.54,8.23-9.9,8.23h-9.69V14.49h8.77Zm-5.2,12.18h5.82c4.04,0,5.7-2.03,5.7-4.86,0-2.54-1.29-4.11-6.32-4.11h-5.2v8.98Zm0,13.26h6.11c4.33,0,6.32-1.87,6.32-4.99,0-3.45-2.24-5.03-6.98-5.03h-5.45v10.02Z"/><path class="cls-2" d="m320.09,20.85c-1.54-2-3.2-3.45-6.82-3.45-3.33,0-5.57,1.5-5.57,4.49,0,3.41,2.58,4.57,6.78,5.32,5.53.95,8.9,2.95,8.9,8.27,0,3.74-2.5,8.02-9.64,8.02-4.66,0-8.07-1.58-10.23-4.7l2.95-2.03c1.87,2.2,3.53,3.49,7.28,3.49,4.7,0,6.07-2.16,6.07-4.61,0-2.7-1.37-4.53-6.78-5.36-5.41-.83-8.9-3.41-8.9-8.4,0-4.12,2.7-7.73,9.27-7.73,4.57,0,7.44,1.54,9.48,4.7l-2.79,2Z"/><path class="cls-2" d="m332.5,26.71h12.31v-12.22h3.58v28.69h-3.58v-13.22h-12.31v13.22h-3.57V14.49h3.57v12.22Z"/><path class="cls-2" d="m364.4,43.51c-6.36,0-10.39-3.83-10.39-13.09v-3.16c0-9.27,4.03-13.09,10.39-13.09s10.4,3.83,10.4,13.09v3.16c0,9.27-4.04,13.09-10.4,13.09Zm-6.82-13.09c0,7.11,2.41,9.85,6.82,9.85s6.82-2.74,6.82-9.85v-3.16c0-7.11-2.41-9.85-6.82-9.85s-6.82,2.74-6.82,9.85v3.16Z"/><path class="cls-2" d="m383.99,32.24v10.93h-3.57V14.49h9.15c6.61,0,10.43,3.32,10.43,8.9s-3.78,8.86-10.43,8.86h-5.57Zm5.57-3.24c4.86,0,6.86-2.08,6.86-5.61s-1.99-5.65-6.86-5.65h-5.57v11.27h5.57Z"/></svg>